# xmcd
#
# Track frame offsets:
# 150
# 12238
# 22275
# 35439
# 47369
# 61529
# 72010
# 83296
# 94571
# 108086
# 117914
# 130913
# 141007
# 153593
# 166473
# 177538
# 189594
# 199892
# 212053
# 223167
# 234229
#
# Disc length: 3269 seconds
#
#
# Revision: 0
# Processed by: cddbd v1.5.2PL0 Copyright (c) Steve Scherf et al.
# Submitted via: FreeRIP 2.944 
#
DISCID=190cc315
DTITLE=Carl Smith - Kisses don' t lie
DYEAR=2009
DGENRE=Country
TTITLE0=Carl Smith - Kisses don't lie (1955)
TTITLE1=Carl Smith - No, I don't believe I will (1955)
TTITLE2=Carl Smith - Wait a little longer please, Jesus (1955)
TTITLE3=Carl Smith - There she goes (1955)
TTITLE4=Carl Smith - Old lonesome times (1955)
TTITLE5=Carl Smith - Don't tease me (1955)
TTITLE6=Carl Smith - You're free to go (1956)
TTITLE7=Carl Smith - I feel like cryin' (1956)
TTITLE8=Carl Smith - I've changed (1956)
TTITLE9=Carl Smith - You are the one (1956)
TTITLE10=Carl Smith - Doorstep to heaven (1956)
TTITLE11=Carl Smith - Before I met you (1956)
TTITLE12=Carl Smith - Wicked lies (1956)
TTITLE13=Carl Smith - You can' t hurt me anymore (1957)
TTITLE14=Carl Smith - Why, why (1957)
TTITLE15=Carl Smith - Your name is beautiful (1958)
TTITLE16=Carl Smith - Walking the slow walk (1958)
TTITLE17=Carl Smith - The best years of your life (1959)
TTITLE18=Carl Smith - It's all my heartache (1959)
TTITLE19=Carl Smith - Ten thousand drums (1959)
TTITLE20=Carl Smith - Tomorrow night (1959)
EXTD=21 greatest hits\nOriginal recordings - digitally remastered
EXTT0=
EXTT1=
EXTT2=
EXTT3=
EXTT4=
EXTT5=
EXTT6=
EXTT7=
EXTT8=
EXTT9=
EXTT10=
EXTT11=
EXTT12=
EXTT13=
EXTT14=
EXTT15=
EXTT16=
EXTT17=
EXTT18=
EXTT19=
EXTT20=
PLAYORDER=
